<svg height="559" viewBox="0 0 361 559" width="361" xmlns="http://www.w3.org/2000/svg">
  <g fill="none" fill-rule="evenodd" transform="translate(-121 -21)">
    <path d="m481.926 398.179c-5.922 0-12.301-2.734-16.858-23.69s-11.389-42.369-11.389-42.369c7.29 0 11.389-3.19 11.389-3.19-5.012-2.279-15.946-10.022-23.234-19.59-7.289-9.567-25.969-25.058-25.969-25.058v-30.978c0-20.958 13.441-37.357 13.441-37.357-9.111 0-13.441 8.199-13.441 8.199v-44.191c0-43.736 22.095-63.324 22.095-63.324-6.834-.455-11.389 2.733-11.389 2.733 3.189-32.345 13.099-41.913 13.099-41.913-36.446-9.568-56.777 11.845-56.777 11.845-4.1-19.589 11.931-30.983 11.931-30.983-18.678-4.1-34.126 1.367-34.126 1.367 0-28.701 11.41-38.274 11.41-38.274-56.948 0-89.282 42.819-89.282 42.819-2.277-18.224 2.738-34.185 2.738-34.185-55.124 23.235-69.699 74.689-69.699 74.689-3.644-8.655-4.099-28.305-4.099-28.305s-22.78 38.155-26.88 64.577c-4.1 26.425 3.644 102.279 3.644 102.279s-3.643-4.554-11.388-5.465c0 0 8.2 9.112 8.2 29.613 0 0-3.19-2.734-8.656-1.367 0 0 8.655 7.744 9.567 20.956 0 0-10.023 6.834-15.49 13.668 0 0-8.657.455-13.212 1.822 0 0 7.29 4.1 8.657 7.745 0 0-21.413 21.868-32.347 39.635 0 0 9.568-5.922 16.401-4.1 0 0-15.035 18.223-20.046 48.291 0 0 7.289-3.643 10.478-1.821 0 0-9.112 19.133-9.567 39.179l-10.022 5.923 7.745 5.467s-5.923 24.601-7.29 38.724c0 0 4.555-4.555 8.2-5.922 0 0 5.012 11.844 11.846 20.956s22.325 16.857 31.436 16.857l17.125-.668c-2.124 9.165-6.314 16.937-15.146 17.344l-.98 1.573c-.185-.014-.367-.022-.545-.026-.175 2.676-5.576 3.158-7.061 5.012-4.515 5.633-7.958 13.372-10.251 20.273-1.68 5.057-.886 5.056-2.05 10.251-.381 1.7-2.145 3.516-2.733 5.238 4.919-1.652 18.552-2.756 25.733-3.283l.121 6.356s1.184 1.101 3.145 1.899c.068-.013.133-.032.215-.025.666.054 1.309.152 1.938.308 10.776-.964 18.279.854 30.769-.183 2.43-.289 4.709-.631 6.836-1.842.605-1.807.686-1.918.971-4.252.061-.416.061-.844.161-1.351.196-.033.386-.061.577-.089.073-.028.189-.052.446-.062.053-.016.098-.041.158-.046.198-.018.395-.034.593-.051.136-.051.266-.065.383-.033 2.261-.202 5.89-.393 8.15-.516 7.347-.012 17.013.834 17.013.834.598-8.235 1.196-21.013 14.522-58.257l3.303-2.049s40.929 14.422 78.906-.583c3.005 7.397 12.729 32.259 14.258 47.932 1.307 1.837 1.162 4.168 1.206 6.638.037 2.09.213 4.181.269 6.265 1.366-.186 6.297-.79 12.522-.78 2.26.123 5.889.314 8.15.516.118-.032.247-.018.383.033.198.017.395.033.593.051.06.005.105.03.159.046.256.01.372.034.446.062.19.028.38.056.576.089.1.507.1.935.162 1.351.284 2.334.365 2.445.97 4.252.195.111.392.207.59.305 6.8-.863 13.691-1.021 20.534-.697 5.382.255 10.672 1.265 15.969 2.229.001.05.005.101.005.152.534.057 1.056.095 1.577.129 2.842.508 5.692.981 8.56 1.291.055-3.588.035-6.725-.04-9.48 5.706.273 13.965 1.409 17.43 1.914 1.374.329 2.49.532 3.661.784.159.047.327.095.472.143-.006-.013-.012-.028-.018-.041 1.176.264 2.444.598 4.118 1.18-.255-3.082-.232-3.018-.64-6.882-.314-2.988-2.457-12.067-6.466-15.812 0 0 4.368 1.888 5.702 2.64-4.306-5.834-6.4-14.175-19.929-19.926 0 0 2.471-1.165 4.73-1.459-2.361-1.455-4.164-2.027-6.554-1.854.812-2.306 4.385-8.123 7.383-8.87 0 0-1.84-1.279-4.849-.29-1.118.586-2.203 1.215-3.259 1.959-.399.282-.981-.01-1.099-.447-.946-3.498-1.561-7.052-2.119-10.621 27.263-.988 31.087-14.974 31.087-14.974 2.278 1.823 2.277 5.922 2.277 5.922 11.844-15.49 10.478-30.98 10.478-30.98 2.734.455 5.012 2.278 5.012 2.278 1.367-23.69-5.922-64.237-5.922-64.237 3.645 1.822 5.922-.455 5.922-.455-4.1-1.822-4.555-6.379-4.555-6.379 5.923.456 6.834-5.011 6.834-5.011" fill="#edf7fa"/>
    <g fill="#cde9ee">
      <path d="m221.29 570.065s1.068-11.522-2.689-19.836c0 0 7.116.483 8.312 19.276 0 0-4.984.579-5.623.56"/>
      <path d="m185.569 531.209.044-.354c.026.175.022.31-.044.354"/>
      <path d="m192.232 569.172c-.041-.011-.064-.017-.064-.017s.029-.079.083-.216z"/>
      <path d="m282.828 64.225c-2.277-18.224 2.738-34.185 2.738-34.185-55.125 23.235-69.701 74.689-69.701 74.689-3.644-8.655-4.099-28.305-4.099-28.305s-22.78 38.155-26.88 64.577c-4.1 26.425 3.644 102.279 3.644 102.279s-3.643-4.554-11.388-5.465c0 0 8.2 9.112 8.2 29.613 0 0-3.19-2.734-8.656-1.367 0 0 8.655 7.744 9.567 20.956 0 0-10.023 6.834-15.49 13.668 0 0-8.657.455-13.212 1.822 0 0 7.29 4.1 8.657 7.745 0 0-21.413 21.868-32.347 39.635 0 0 9.568-5.922 16.401-4.1 0 0-15.035 18.223-20.046 48.291 0 0 7.289-3.643 10.478-1.821 0 0-9.112 19.133-9.567 39.179l-10.022 5.923 7.745 5.467s-5.923 24.601-7.29 38.724c0 0 4.555-4.555 8.2-5.922 0 0 5.012 11.844 11.846 20.956s22.325 16.857 31.436 16.857l1.153-.158c-.508 3.141-1.08 6.27-1.914 9.353-.118.437-.699.729-1.099.447-1.055-.744-2.14-1.373-3.259-1.959-3.008-.989-4.849.29-4.849.29 2.998.747 6.571 6.564 7.384 8.87-2.391-.173-4.194.399-6.555 1.854 2.26.294 4.73 1.459 4.73 1.459-13.528 5.751-15.623 14.092-19.928 19.926 1.333-.752 5.701-2.64 5.701-2.64-4.009 3.745-6.151 12.824-6.466 15.812-.407 3.864-.385 3.8-.639 6.882 3.586-1.247 5.329-1.37 8.232-2.066 4.486-.653 17.023-2.372 21.628-1.894l-.726 8.857s.092 0 .226-.003c2.364-.678 4.29-.587 6.399-.814.031-2.441.159-4.88.359-7.312-.141-4.156.375-7.941 1.224-12.16.028-.142.063-.29.092-.432 1.673-5.76 4.582-9.039 6.472-11.056.627-.67 1.172-1.463 1.638-2.276 1.128-1.501 2.3-3.456 3.205-5.924 1.873-5.111 1.07-16.339-2.694-27.297 3.969 5.709 7.584 10.719 9.298 12.433l-.114-13.951s7.289 7.284 13.813 12.787c3.141 2.743 7.015 6.31 9.766 7.731.199.125.378-1.2.597.8h-.002c.028 0 .055-.396.083-.38 3.695 2.073 7.496 3.719 11.054 6.022.381.246.77.365 1.144.623 1.647 1.134 4.546 2.394 7.151 3.767l2.464 29.097c2.221-30.581 19.647-59.864 19.647-59.864l-.638-.196c-5.392-1.667-44.845-15.316-68.154-64.052-1.535-3.21 8.656 3.643 8.656 3.643-9.568-23.235-13.213-60.593-13.213-60.593 3.189 2.734 6.379 3.189 6.379 3.189-6.834-19.135-9.567-42.825-9.567-64.238-1.822-115.261 40.775-141.684 40.775-141.684-7.289-2.734-15.034-2.506-15.034-2.506 8.429-20.273 36.445-48.519 36.445-48.519-7.517.456-36.902 8.427-36.902 8.427 24.374-63.553 48.976-80.409 48.976-80.409-1.822 15.261 4.101 31.435 4.101 31.435 52.847-65.377 95.307-62.327 95.307-62.327 3.149-6.558 6.726-11.029 6.726-11.029-56.948 0-89.286 42.819-89.286 42.819"/>
      <path d="m432.209 569.705s-.514-16.516-4.271-24.83c0 0 9.795 6.037 9.739 25.113 0 0-4.829-.264-5.468-.283"/>
    </g>
    <path d="m177.361 484.763c6.452-63.192 8.208-186.813 8.208-186.813-14.009 27.676-25.284 77.904-25.284 77.904l2.733 10.934-6.15-2.733c-9.885 34.306-3.197 80.229-.982 93.166 6.288 4.978 13.778 6.657 21.475 7.542" fill="#abd8d7"/>
    <path d="m164.146 483.397c2.003 10.114 4.081 19.854 6.389 29.9 1.709.257 3.631.128 3.631.128 1.568-6.11 1.828-15.566 3.047-27.198-4.492-.526-8.899-1.324-13.067-2.83" fill="#abd8d7"/>
    <path d="m378.252 537.851c-.367.106-.646-.058-.797-.309-.709.139-1.251.267-1.616.361 0-.002.001-.002.001-.002 9.399-6.84 10.263-14.073 10.263-14.073-6.235 2.811-12.854 3.861-16.074 4.231 21.725-18.831 25.335-53.798 25.335-53.798-8.898 10.923-21.526 20.154-31.285 26.35l.021-.042s-6.539 3.656-12.581 6.503c-.265-.04-.531.031-.73.34-3.104 1.438-5.998 2.611-7.703 2.896 0 0 5.032 9.291 7.133 14.301l-.412.334s7.279 17.205 9.929 33.872c.28 2.816.496 5.284.647 7.169.127 2.438.3 4.118.3 4.118 9.625-1.424 23.22-.037 23.22-.037-.065 1.568.796 5.332.954 6.014 4.571-.616 9.182-.885 13.795-.925-.062-16.154-.772-42.995-20.4-37.303" fill="#cde9ee"/>
    <path d="m176.856 489.637c-15.093-2.553-28.79-19.899-28.79-19.899 11.005 11.702 24.705 13.269 24.705 13.269 1.808-13.364-9.238-43.952-9.238-43.952 8.181 10.188 12.656 21.972 15.103 31.617z" fill="#83bac0"/>
    <path d="m211.11 465.974s11.874 20.928 22.295 29.983c11.247 9.771 21.697 23.576 26.139 31.947 0 0 5.638-13.096 8.713-17.653 0 0-33.314-9.767-57.147-44.277" fill="#abd8d7"/>
    <path d="m366.089 506.792c1.651-2.323 3.542-4.482 5.344-6.687 2.955-3.618 6.331-7.13 8.812-11.067-4.282 3.204-9.05 5.98-13.924 8.913-14.147 9.586-24.003 12.3-24.003 12.3 3.075 4.557 8.713 17.653 8.713 17.653 2.688-5.066 7.585-12.123 13.52-19.073.498-.691 1.052-1.354 1.538-2.039" fill="#abd8d7"/>
    <path d="m206.606 154.316c-1.295.094-5.441.199-5.441.199-37.562 2.622-65.172-26.486-65.172-26.486s-2.468 22.721 13.849 42.631c16.322 19.91 49.396 23.317 49.396 23.317 1.075 4.656-1.253 15.039-1.253 15.039s9.671-10.698 12.127-30.968c1.724-14.204-2.704-23.79-3.506-23.732" fill="#545352"/>
    <path d="m206.606 154.316c-1.246.071-5.441.199-5.441.199-37.562 2.622-65.172-26.486-65.172-26.486s17.16 49.661 74.469 45.737c0 0 1.584-9.186-3.856-19.45" fill="#6e7979"/>
    <path d="m394.146 154.316c1.294.094 5.44.199 5.44.199 37.563 2.622 65.172-26.486 65.172-26.486s2.468 22.721-13.848 42.631c-16.323 19.91-49.397 23.317-49.397 23.317-1.074 4.656 1.254 15.039 1.254 15.039s-9.672-10.698-12.128-30.968c-1.724-14.204 2.705-23.79 3.507-23.732" fill="#545352"/>
    <path d="m394.146 154.316c1.245.071 5.44.199 5.44.199 37.563 2.622 65.172-26.486 65.172-26.486s-17.16 49.661-74.468 45.737c0 0-1.585-9.186 3.856-19.45" fill="#6e7979"/>
    <g fill="#cde9ee">
      <path d="m187 322.551s-27 97.039 0 159.226z"/>
      <path d="m455.843 476.05c-13.326 10.169-27.191 10.813-27.191 10.813-.618-13.285 13.905-42.33 13.905-42.33-3.305 1.951-5.961 4.311-8.146 6.9l-.095-9.747 10.478-8.655-8.427-6.834 10.705-43.053-10.25 6.834s-3.188-61.274-.911-87.698c0 0-12.984-12.986-19.362-18.224 0 0 1.205 18.866 2.58 49.01 5.819 24.181 14.856 74.223 3.614 118.234.13 8.921.226 17.981.278 27.127 0 0 5.602 19.465 7.423 33.132 0 0 1.822.513 4.556.058l-.206-20.931c14.076-4.251 21.049-14.636 21.049-14.636"/>
      <path d="m329.531 288.15c0 10.35 6.628 18.74 14.807 18.74 8.178 0 14.808-8.39 14.808-18.74 0-10.352-6.63-18.742-14.808-18.742-8.179 0-14.807 8.39-14.807 18.742"/>
    </g>
    <path d="m329.988 283.144c0 10.19 6.526 18.451 14.579 18.451 8.052 0 14.579-8.261 14.579-18.451 0-10.191-6.527-18.451-14.579-18.451-8.053 0-14.579 8.26-14.579 18.451" fill="#fff"/>
    <path d="m340.696 273.631c-.116.453-.196.925-.196 1.426 0 2.599 1.694 4.703 3.782 4.703 1.856 0 3.393-1.664 3.713-3.857 1.191 1.562 1.925 3.665 1.925 5.988 0 4.813-3.136 8.713-7.004 8.713s-7.005-3.9-7.005-8.713c0-3.847 2.005-7.104 4.785-8.26" fill="#474746"/>
    <path d="m258.46 288.15c0 10.35 6.629 18.74 14.808 18.74 8.177 0 14.807-8.39 14.807-18.74 0-10.352-6.63-18.742-14.807-18.742-8.179 0-14.808 8.39-14.808 18.742" fill="#cde9ee"/>
    <path d="m258.917 283.144c0 10.19 6.527 18.451 14.579 18.451s14.579-8.261 14.579-18.451c0-10.191-6.527-18.451-14.579-18.451s-14.579 8.26-14.579 18.451" fill="#fff"/>
    <path d="m272.359 273.631c-.116.453-.196.925-.196 1.426 0 2.599 1.693 4.703 3.782 4.703 1.855 0 3.393-1.664 3.713-3.857 1.191 1.562 1.925 3.665 1.925 5.988 0 4.813-3.137 8.713-7.005 8.713s-7.004-3.9-7.004-8.713c0-3.847 2.005-7.104 4.785-8.26" fill="#474746"/>
    <path d="m382.882 302.854c-.929 2.796-4.084 3.539-13.073 5.277l-.612.118c-8.807 1.691-24.553 1.47-33.177.21-.372-.053-.731-.108-1.073-.165-7.993-1.352-8.903-2.387-11.474-6.53-2.655-4.288-4.287-16.878-4.588-19.361l-.015-.125c-.319-2.624-.477-3.938 2.894-5.447 4.534-2.033 24.658-4.873 32.904-5.244 6.51-.287 20.31.619 26.62 1.541.989.146 1.722.279 2.175.399.726.193 3.399 1.493 3.263 4.335-.177 3.746-2.588 21.212-3.844 24.992zm-87.768-20.576-.016.125c-.3 2.483-1.932 15.073-4.587 19.361-2.571 4.143-3.481 5.178-11.475 6.53-.341.057-.7.112-1.073.165-8.623 1.26-24.369 1.481-33.177-.21l-.611-.118c-8.989-1.738-12.144-2.481-13.073-5.277-1.256-3.78-3.667-21.246-3.844-24.992-.137-2.842 2.537-4.142 3.263-4.335.452-.12 1.185-.253 2.174-.399 6.311-.922 20.11-1.828 26.621-1.541 8.246.371 28.369 3.211 32.903 5.244 3.372 1.509 3.214 2.823 2.895 5.447zm99.311-16.631c-6.603-.965-18.127-2.059-31.96-1.353-18.001.926-33.425 3.425-42.639 4.917-2.75.446-4.911.798-6.56 1.016l-1.799.244c-2.021.278-3.346.454-4.475.51-1.129-.056-2.455-.232-4.475-.51l-1.8-.244c-1.648-.218-3.809-.57-6.56-1.016-9.213-1.492-24.637-3.991-42.638-4.917-13.833-.706-25.357.388-31.96 1.353 0 0-7.046.897-13.072 3.446l1.149 7.659s6.367-1.516 12.586-2.346c1.156 10.8 3.405 24.678 3.405 24.678l.036.43c.171.7.33 1.379.502 2.12 1.281 5.457 2.553 8.665 7.671 10.589 5.026 1.897 16.919 3.655 28.913 4.273 4.46.231 9.522-.044 14.642-.789 7.593-1.109 14.461-3.153 17.085-5.093 3.818-2.822 5.86-9.923 7.212-14.621l.405-1.385c.478-1.602.893-3.284 1.294-4.916.577-2.342 1.172-4.763 1.681-5.599.092-.146.52-.651 2.189-.896.516-.074 1.097-.114 1.735-.122.638.008 1.218.048 1.735.122 1.668.245 2.097.75 2.189.896.508.836 1.104 3.257 1.68 5.599.402 1.632.817 3.314 1.295 4.916l.404 1.385c1.352 4.698 3.395 11.799 7.213 14.621 2.624 1.94 9.491 3.984 17.084 5.093 5.12.745 10.183 1.02 14.642.789 11.995-.618 23.887-2.376 28.914-4.273 5.117-1.924 6.389-5.132 7.671-10.589.172-.741.331-1.42.501-2.12l.036-.43s2.249-13.878 3.405-24.678c6.22.83 12.587 2.346 12.587 2.346l1.149-7.659c-6.026-2.549-13.072-3.446-13.072-3.446z" fill="#545352"/>
    <g fill="#a0d1de">
      <path d="m277.838 246.251s-16.469-7.854-25.895 6.73c0 0-.973-14.503 12.327-16.123 13.301-1.623 13.568 9.393 13.568 9.393"/>
      <path d="m271.661 224.941s-15.267-7.205-22.223 6.642c0 0-2.272-12.098 8.623-15.018 10.896-2.921 13.6 8.376 13.6 8.376"/>
      <path d="m336.832 255.143s12.79-6.1 20.111 5.228c0 0 .756-11.263-9.573-12.523-10.331-1.26-10.538 7.295-10.538 7.295"/>
      <path d="m345.927 234.97s12.942-2.095 15.158 9.734c0 0 4.296-8.54-3.207-13.061-7.504-4.523-11.951 3.327-11.951 3.327"/>
    </g>
    <path d="m276.693 361.144s9.036-6.073 14.37-6.909c0 0 1.164 11.459 6.464 17.106 0 0 11.439-10.311 22.751-11.044 0 0 2.92 6.284 7.661 8.614l-.027.073c1.711 1.068 3.807 2.148 5.837 2.599 0 0 6.492-3.929 8.371-11.105 0 0 .625 15.149-8.884 23.406 0 0-7.251-3.539-12.475-9.203-1.569-1.528-3.2-3.305-3.992-4.75 0 0-16.776 11.868-17.389 18.636 0 0-12.11-11.807-16.239-20.904 0 0-8.082 2.551-10.324 4.195 0 0-6.496-10.624-7.815-20.211 0 0 7.812 7.461 11.691 9.497" fill="#b2dce5"/>
    <path d="m307.187 331.37c-.67-.143 17.016 1.224 34.382.607 0 0 .928-3.313 2.26-5.133 0 0-.29 5.576 1.27 6.717 0 0-8.69 3.421-17.454 3.396 0 0 9.55-1.594 12.753-3.242 0 0-17.427.97-33.211-2.345" fill="#545352"/>
  </g>
</svg>
