<?xml version="1.0" encoding="UTF-8" standalone="no"?>
<svg width="361px" height="559px" viewBox="0 0 361 559" version="1.1" xmlns="http://www.w3.org/2000/svg" xmlns:xlink="http://www.w3.org/1999/xlink" xmlns:sketch="http://www.bohemiancoding.com/sketch/ns">
    <title>Untitled</title>
    <description>Created with Sketch (http://www.bohemiancoding.com/sketch)</description>
    <defs></defs>
    <g id="Page-1" stroke="none" stroke-width="1" fill="none" fill-rule="evenodd" sketch:type="MSPage">
        <g id="yeti-f5" sketch:type="MSLayerGroup" transform="translate(-121.000000, -21.000000)">
            <path d="M481.926,398.179 C476.004,398.179 469.625,395.445 465.068,374.489 C460.511,353.533 453.679,332.12 453.679,332.12 C460.969,332.12 465.068,328.93 465.068,328.93 C460.056,326.651 449.122,318.908 441.834,309.34 C434.545,299.773 415.865,284.282 415.865,284.282 L415.865,253.304 C415.865,232.346 429.306,215.947 429.306,215.947 C420.195,215.947 415.865,224.146 415.865,224.146 L415.865,179.955 C415.865,136.219 437.96,116.631 437.96,116.631 C431.126,116.176 426.571,119.364 426.571,119.364 C429.76,87.019 439.67,77.451 439.67,77.451 C403.224,67.883 382.893,89.296 382.893,89.296 C378.793,69.707 394.824,58.313 394.824,58.313 C376.146,54.213 360.698,59.68 360.698,59.68 C360.698,30.979 372.108,21.406 372.108,21.406 C315.16,21.406 282.826,64.225 282.826,64.225 C280.549,46.001 285.564,30.04 285.564,30.04 C230.44,53.275 215.865,104.729 215.865,104.729 C212.221,96.074 211.766,76.424 211.766,76.424 C211.766,76.424 188.986,114.579 184.886,141.001 C180.786,167.426 188.53,243.28 188.53,243.28 C188.53,243.28 184.887,238.726 177.142,237.815 C177.142,237.815 185.342,246.927 185.342,267.428 C185.342,267.428 182.152,264.694 176.686,266.061 C176.686,266.061 185.341,273.805 186.253,287.017 C186.253,287.017 176.23,293.851 170.763,300.685 C170.763,300.685 162.106,301.14 157.551,302.507 C157.551,302.507 164.841,306.607 166.208,310.252 C166.208,310.252 144.795,332.12 133.861,349.887 C133.861,349.887 143.429,343.965 150.262,345.787 C150.262,345.787 135.227,364.01 130.216,394.078 C130.216,394.078 137.505,390.435 140.694,392.257 C140.694,392.257 131.582,411.39 131.127,431.436 L121.105,437.359 L128.85,442.826 C128.85,442.826 122.927,467.427 121.56,481.55 C121.56,481.55 126.115,476.995 129.76,475.628 C129.76,475.628 134.772,487.472 141.606,496.584 C148.44,505.696 163.931,513.441 173.042,513.441 L190.167,512.773 C188.043,521.938 183.853,529.71 175.021,530.117 L174.041,531.69 C173.856,531.676 173.674,531.668 173.496,531.664 C173.321,534.34 167.92,534.822 166.435,536.676 C161.92,542.309 158.477,550.048 156.184,556.949 C154.504,562.006 155.298,562.005 154.134,567.2 C153.753,568.9 151.989,570.716 151.401,572.438 C156.32,570.786 169.953,569.682 177.134,569.155 L177.255,575.511 C177.255,575.511 178.439,576.612 180.4,577.41 C180.468,577.397 180.533,577.378 180.615,577.385 C181.281,577.439 181.924,577.537 182.553,577.693 C193.329,576.729 200.832,578.547 213.322,577.51 C215.752,577.221 218.031,576.879 220.158,575.668 C220.763,573.861 220.844,573.75 221.129,571.416 C221.19,571 221.19,570.572 221.29,570.065 C221.486,570.032 221.676,570.004 221.867,569.976 C221.94,569.948 222.056,569.924 222.313,569.914 C222.366,569.898 222.411,569.873 222.471,569.868 C222.669,569.85 222.866,569.834 223.064,569.817 C223.2,569.766 223.33,569.752 223.447,569.784 C225.708,569.582 229.337,569.391 231.597,569.268 C238.944,569.256 248.61,570.102 248.61,570.102 C249.208,561.867 249.806,549.089 263.132,511.845 L266.435,509.796 C266.435,509.796 307.364,524.218 345.341,509.213 C348.346,516.61 358.07,541.472 359.599,557.145 C360.906,558.982 360.761,561.313 360.805,563.783 C360.842,565.873 361.018,567.964 361.074,570.048 C362.44,569.862 367.371,569.258 373.596,569.268 C375.856,569.391 379.485,569.582 381.746,569.784 C381.864,569.752 381.993,569.766 382.129,569.817 C382.327,569.834 382.524,569.85 382.722,569.868 C382.782,569.873 382.827,569.898 382.881,569.914 C383.137,569.924 383.253,569.948 383.327,569.976 C383.517,570.004 383.707,570.032 383.903,570.065 C384.003,570.572 384.003,571 384.065,571.416 C384.349,573.75 384.43,573.861 385.035,575.668 C385.23,575.779 385.427,575.875 385.625,575.973 C392.425,575.11 399.316,574.952 406.159,575.276 C411.541,575.531 416.831,576.541 422.128,577.505 C422.129,577.555 422.133,577.606 422.133,577.657 C422.667,577.714 423.189,577.752 423.71,577.786 C426.552,578.294 429.402,578.767 432.27,579.077 C432.325,575.489 432.305,572.352 432.23,569.597 C437.936,569.87 446.195,571.006 449.66,571.511 C451.034,571.84 452.15,572.043 453.321,572.295 C453.48,572.342 453.648,572.39 453.793,572.438 C453.787,572.425 453.781,572.41 453.775,572.397 C454.951,572.661 456.219,572.995 457.893,573.577 C457.638,570.495 457.661,570.559 457.253,566.695 C456.939,563.707 454.796,554.628 450.787,550.883 C450.787,550.883 455.155,552.771 456.489,553.523 C452.183,547.689 450.089,539.348 436.56,533.597 C436.56,533.597 439.031,532.432 441.29,532.138 C438.929,530.683 437.126,530.111 434.736,530.284 C435.548,527.978 439.121,522.161 442.119,521.414 C442.119,521.414 440.279,520.135 437.27,521.124 C436.152,521.71 435.067,522.339 434.011,523.083 C433.612,523.365 433.03,523.073 432.912,522.636 C431.966,519.138 431.351,515.584 430.793,512.015 C458.056,511.027 461.88,497.041 461.88,497.041 C464.158,498.864 464.157,502.963 464.157,502.963 C476.001,487.473 474.635,471.983 474.635,471.983 C477.369,472.438 479.647,474.261 479.647,474.261 C481.014,450.571 473.725,410.024 473.725,410.024 C477.37,411.846 479.647,409.569 479.647,409.569 C475.547,407.747 475.092,403.19 475.092,403.19 C481.015,403.646 481.926,398.179 481.926,398.179" id="Fill-4" fill="#EDF7FA" sketch:type="MSShapeGroup"></path>
            <path d="M221.29,570.065 C221.29,570.065 222.358,558.543 218.601,550.229 C218.601,550.229 225.717,550.712 226.913,569.505 C226.913,569.505 221.929,570.084 221.29,570.065" id="Fill-5" fill="#CDE9EE" sketch:type="MSShapeGroup"></path>
            <path d="M185.569,531.209 L185.613,530.855 C185.639,531.03 185.635,531.165 185.569,531.209" id="Fill-6" fill="#CDE9EE" sketch:type="MSShapeGroup"></path>
            <path d="M192.232,569.172 C192.191,569.161 192.168,569.155 192.168,569.155 C192.168,569.155 192.197,569.076 192.251,568.939 L192.232,569.172" id="Fill-7" fill="#CDE9EE" sketch:type="MSShapeGroup"></path>
            <path d="M282.828,64.225 C280.551,46.001 285.566,30.04 285.566,30.04 C230.441,53.275 215.865,104.729 215.865,104.729 C212.221,96.074 211.766,76.424 211.766,76.424 C211.766,76.424 188.986,114.579 184.886,141.001 C180.786,167.426 188.53,243.28 188.53,243.28 C188.53,243.28 184.887,238.726 177.142,237.815 C177.142,237.815 185.342,246.927 185.342,267.428 C185.342,267.428 182.152,264.694 176.686,266.061 C176.686,266.061 185.341,273.805 186.253,287.017 C186.253,287.017 176.23,293.851 170.763,300.685 C170.763,300.685 162.106,301.14 157.551,302.507 C157.551,302.507 164.841,306.607 166.208,310.252 C166.208,310.252 144.795,332.12 133.861,349.887 C133.861,349.887 143.429,343.965 150.262,345.787 C150.262,345.787 135.227,364.01 130.216,394.078 C130.216,394.078 137.505,390.435 140.694,392.257 C140.694,392.257 131.582,411.39 131.127,431.436 L121.105,437.359 L128.85,442.826 C128.85,442.826 122.927,467.427 121.56,481.55 C121.56,481.55 126.115,476.995 129.76,475.628 C129.76,475.628 134.772,487.472 141.606,496.584 C148.44,505.696 163.931,513.441 173.042,513.441 L174.195,513.283 C173.687,516.424 173.115,519.553 172.281,522.636 C172.163,523.073 171.582,523.365 171.182,523.083 C170.127,522.339 169.042,521.71 167.923,521.124 C164.915,520.135 163.074,521.414 163.074,521.414 C166.072,522.161 169.645,527.978 170.458,530.284 C168.067,530.111 166.264,530.683 163.903,532.138 C166.163,532.432 168.633,533.597 168.633,533.597 C155.105,539.348 153.01,547.689 148.705,553.523 C150.038,552.771 154.406,550.883 154.406,550.883 C150.397,554.628 148.255,563.707 147.94,566.695 C147.533,570.559 147.555,570.495 147.301,573.577 C150.887,572.33 152.63,572.207 155.533,571.511 C160.019,570.858 172.556,569.139 177.161,569.617 L176.435,578.474 C176.435,578.474 176.527,578.474 176.661,578.471 C179.025,577.793 180.951,577.884 183.06,577.657 C183.091,575.216 183.219,572.777 183.419,570.345 C183.278,566.189 183.794,562.404 184.643,558.185 C184.671,558.043 184.706,557.895 184.735,557.753 C186.408,551.993 189.317,548.714 191.207,546.697 C191.834,546.027 192.379,545.234 192.845,544.421 C193.973,542.92 195.145,540.965 196.05,538.497 C197.923,533.386 197.12,522.158 193.356,511.2 C197.325,516.909 200.94,521.919 202.654,523.633 L202.54,509.682 C202.54,509.682 209.829,516.966 216.353,522.469 C219.494,525.212 223.368,528.779 226.119,530.2 C226.318,530.325 226.497,529 226.716,531 L226.714,531 C226.742,531 226.769,530.604 226.797,530.62 C230.492,532.693 234.293,534.339 237.851,536.642 C238.232,536.888 238.621,537.007 238.995,537.265 C240.642,538.399 243.541,539.659 246.146,541.032 L248.61,570.129 C250.831,539.548 268.257,510.265 268.257,510.265 L267.619,510.069 C262.227,508.402 222.774,494.753 199.465,446.017 C197.93,442.807 208.121,449.66 208.121,449.66 C198.553,426.425 194.908,389.067 194.908,389.067 C198.097,391.801 201.287,392.256 201.287,392.256 C194.453,373.121 191.72,349.431 191.72,328.018 C189.898,212.757 232.495,186.334 232.495,186.334 C225.206,183.6 217.461,183.828 217.461,183.828 C225.89,163.555 253.906,135.309 253.906,135.309 C246.389,135.765 217.004,143.736 217.004,143.736 C241.378,80.183 265.98,63.327 265.98,63.327 C264.158,78.588 270.081,94.762 270.081,94.762 C322.928,29.385 365.388,32.435 365.388,32.435 C368.537,25.877 372.114,21.406 372.114,21.406 C315.166,21.406 282.828,64.225 282.828,64.225" id="Fill-8" fill="#CDE9EE" sketch:type="MSShapeGroup"></path>
            <path d="M432.209,569.705 C432.209,569.705 431.695,553.189 427.938,544.875 C427.938,544.875 437.733,550.912 437.677,569.988 C437.677,569.988 432.848,569.724 432.209,569.705" id="Fill-9" fill="#CDE9EE" sketch:type="MSShapeGroup"></path>
            <path d="M177.361,484.763 C183.813,421.571 185.569,297.95 185.569,297.95 C171.56,325.626 160.285,375.854 160.285,375.854 L163.018,386.788 L156.868,384.055 C146.983,418.361 153.671,464.284 155.886,477.221 C162.174,482.199 169.664,483.878 177.361,484.763" id="Fill-10" fill="#ABD8D7" sketch:type="MSShapeGroup"></path>
            <path d="M164.146,483.397 C166.149,493.511 168.227,503.251 170.535,513.297 C172.244,513.554 174.166,513.425 174.166,513.425 C175.734,507.315 175.994,497.859 177.213,486.227 C172.721,485.701 168.314,484.903 164.146,483.397" id="Fill-11" fill="#ABD8D7" sketch:type="MSShapeGroup"></path>
            <path d="M378.252,537.851 C377.885,537.957 377.606,537.793 377.455,537.542 C376.746,537.681 376.204,537.809 375.839,537.903 C375.839,537.901 375.84,537.901 375.84,537.901 C385.239,531.061 386.103,523.828 386.103,523.828 C379.868,526.639 373.249,527.689 370.029,528.059 C391.754,509.228 395.364,474.261 395.364,474.261 C386.466,485.184 373.838,494.415 364.079,500.611 L364.1,500.569 C364.1,500.569 357.561,504.225 351.519,507.072 C351.254,507.032 350.988,507.103 350.789,507.412 C347.685,508.85 344.791,510.023 343.086,510.308 C343.086,510.308 348.118,519.599 350.219,524.609 L349.807,524.943 C349.807,524.943 357.086,542.148 359.736,558.815 C360.016,561.631 360.232,564.099 360.383,565.984 C360.51,568.422 360.683,570.102 360.683,570.102 C370.308,568.678 383.903,570.065 383.903,570.065 C383.838,571.633 384.699,575.397 384.857,576.079 C389.428,575.463 394.039,575.194 398.652,575.154 C398.59,559 397.88,532.159 378.252,537.851" id="Fill-12" fill="#CDE9EE" sketch:type="MSShapeGroup"></path>
            <path d="M176.856,489.637 C161.763,487.084 148.066,469.738 148.066,469.738 C159.071,481.44 172.771,483.007 172.771,483.007 C174.579,469.643 163.533,439.055 163.533,439.055 C171.714,449.243 176.189,461.027 178.636,470.672 L176.856,489.637" id="Fill-13" fill="#83BAC0" sketch:type="MSShapeGroup"></path>
            <path d="M211.11,465.974 C211.11,465.974 222.984,486.902 233.405,495.957 C244.652,505.728 255.102,519.533 259.544,527.904 C259.544,527.904 265.182,514.808 268.257,510.251 C268.257,510.251 234.943,500.484 211.11,465.974" id="Fill-14" fill="#ABD8D7" sketch:type="MSShapeGroup"></path>
            <path d="M366.089,506.792 C367.74,504.469 369.631,502.31 371.433,500.105 C374.388,496.487 377.764,492.975 380.245,489.038 C375.963,492.242 371.195,495.018 366.321,497.951 C352.174,507.537 342.318,510.251 342.318,510.251 C345.393,514.808 351.031,527.904 351.031,527.904 C353.719,522.838 358.616,515.781 364.551,508.831 C365.049,508.14 365.603,507.477 366.089,506.792" id="Fill-15" fill="#ABD8D7" sketch:type="MSShapeGroup"></path>
            <path d="M206.606,154.316 C205.311,154.41 201.165,154.515 201.165,154.515 C163.603,157.137 135.993,128.029 135.993,128.029 C135.993,128.029 133.525,150.75 149.842,170.66 C166.164,190.57 199.238,193.977 199.238,193.977 C200.313,198.633 197.985,209.016 197.985,209.016 C197.985,209.016 207.656,198.318 210.112,178.048 C211.836,163.844 207.408,154.258 206.606,154.316" id="Fill-16" fill="#545352" sketch:type="MSShapeGroup"></path>
            <path d="M206.606,154.316 C205.36,154.387 201.165,154.515 201.165,154.515 C163.603,157.137 135.993,128.029 135.993,128.029 C135.993,128.029 153.153,177.69 210.462,173.766 C210.462,173.766 212.046,164.58 206.606,154.316" id="Fill-17" fill="#6E7979" sketch:type="MSShapeGroup"></path>
            <path d="M394.146,154.316 C395.44,154.41 399.586,154.515 399.586,154.515 C437.149,157.137 464.758,128.029 464.758,128.029 C464.758,128.029 467.226,150.75 450.91,170.66 C434.587,190.57 401.513,193.977 401.513,193.977 C400.439,198.633 402.767,209.016 402.767,209.016 C402.767,209.016 393.095,198.318 390.639,178.048 C388.915,163.844 393.344,154.258 394.146,154.316" id="Fill-18" fill="#545352" sketch:type="MSShapeGroup"></path>
            <path d="M394.146,154.316 C395.391,154.387 399.586,154.515 399.586,154.515 C437.149,157.137 464.758,128.029 464.758,128.029 C464.758,128.029 447.598,177.69 390.29,173.766 C390.29,173.766 388.705,164.58 394.146,154.316" id="Fill-19" fill="#6E7979" sketch:type="MSShapeGroup"></path>
            <path d="M187,322.551 C187,322.551 160,419.59 187,481.777 L187,322.551" id="Fill-20" fill="#CDE9EE" sketch:type="MSShapeGroup"></path>
            <path d="M455.843,476.05 C442.517,486.219 428.652,486.863 428.652,486.863 C428.034,473.578 442.557,444.533 442.557,444.533 C439.252,446.484 436.596,448.844 434.411,451.433 L434.316,441.686 L444.794,433.031 L436.367,426.197 L447.072,383.144 L436.822,389.978 C436.822,389.978 433.634,328.704 435.911,302.28 C435.911,302.28 422.927,289.294 416.549,284.056 C416.549,284.056 417.754,302.922 419.129,333.066 C424.948,357.247 433.985,407.289 422.743,451.3 C422.873,460.221 422.969,469.281 423.021,478.427 C423.021,478.427 428.623,497.892 430.444,511.559 C430.444,511.559 432.266,512.072 435,511.617 L434.794,490.686 C448.87,486.435 455.843,476.05 455.843,476.05" id="Fill-21" fill="#CDE9EE" sketch:type="MSShapeGroup"></path>
            <path d="M329.531,288.15 C329.531,298.5 336.159,306.89 344.338,306.89 C352.516,306.89 359.146,298.5 359.146,288.15 C359.146,277.798 352.516,269.408 344.338,269.408 C336.159,269.408 329.531,277.798 329.531,288.15" id="Fill-22" fill="#CDE9EE" sketch:type="MSShapeGroup"></path>
            <path d="M329.988,283.144 C329.988,293.334 336.514,301.595 344.567,301.595 C352.619,301.595 359.146,293.334 359.146,283.144 C359.146,272.953 352.619,264.693 344.567,264.693 C336.514,264.693 329.988,272.953 329.988,283.144" id="Fill-23" fill="#FFFFFF" sketch:type="MSShapeGroup"></path>
            <path d="M340.696,273.631 C340.58,274.084 340.5,274.556 340.5,275.057 C340.5,277.656 342.194,279.76 344.282,279.76 C346.138,279.76 347.675,278.096 347.995,275.903 C349.186,277.465 349.92,279.568 349.92,281.891 C349.92,286.704 346.784,290.604 342.916,290.604 C339.048,290.604 335.911,286.704 335.911,281.891 C335.911,278.044 337.916,274.787 340.696,273.631" id="Fill-24" fill="#474746" sketch:type="MSShapeGroup"></path>
            <path d="M258.46,288.15 C258.46,298.5 265.089,306.89 273.268,306.89 C281.445,306.89 288.075,298.5 288.075,288.15 C288.075,277.798 281.445,269.408 273.268,269.408 C265.089,269.408 258.46,277.798 258.46,288.15" id="Fill-25" fill="#CDE9EE" sketch:type="MSShapeGroup"></path>
            <path d="M258.917,283.144 C258.917,293.334 265.444,301.595 273.496,301.595 C281.548,301.595 288.075,293.334 288.075,283.144 C288.075,272.953 281.548,264.693 273.496,264.693 C265.444,264.693 258.917,272.953 258.917,283.144" id="Fill-26" fill="#FFFFFF" sketch:type="MSShapeGroup"></path>
            <path d="M272.359,273.631 C272.243,274.084 272.163,274.556 272.163,275.057 C272.163,277.656 273.856,279.76 275.945,279.76 C277.8,279.76 279.338,278.096 279.658,275.903 C280.849,277.465 281.583,279.568 281.583,281.891 C281.583,286.704 278.446,290.604 274.578,290.604 C270.71,290.604 267.574,286.704 267.574,281.891 C267.574,278.044 269.579,274.787 272.359,273.631" id="Fill-27" fill="#474746" sketch:type="MSShapeGroup"></path>
            <path d="M382.882,302.854 C381.953,305.65 378.798,306.393 369.809,308.131 L369.197,308.249 C360.39,309.94 344.644,309.719 336.02,308.459 C335.648,308.406 335.289,308.351 334.947,308.294 C326.954,306.942 326.044,305.907 323.473,301.764 C320.818,297.476 319.186,284.886 318.885,282.403 L318.87,282.278 C318.551,279.654 318.393,278.34 321.764,276.831 C326.298,274.798 346.422,271.958 354.668,271.587 C361.178,271.3 374.978,272.206 381.288,273.128 C382.277,273.274 383.01,273.407 383.463,273.527 C384.189,273.72 386.862,275.02 386.726,277.862 C386.549,281.608 384.138,299.074 382.882,302.854 L382.882,302.854 Z M295.114,282.278 L295.098,282.403 C294.798,284.886 293.166,297.476 290.511,301.764 C287.94,305.907 287.03,306.942 279.036,308.294 C278.695,308.351 278.336,308.406 277.963,308.459 C269.34,309.719 253.594,309.94 244.786,308.249 L244.175,308.131 C235.186,306.393 232.031,305.65 231.102,302.854 C229.846,299.074 227.435,281.608 227.258,277.862 C227.121,275.02 229.795,273.72 230.521,273.527 C230.973,273.407 231.706,273.274 232.695,273.128 C239.006,272.206 252.805,271.3 259.316,271.587 C267.562,271.958 287.685,274.798 292.219,276.831 C295.591,278.34 295.433,279.654 295.114,282.278 L295.114,282.278 Z M394.425,265.647 C387.822,264.682 376.298,263.588 362.465,264.294 C344.464,265.22 329.04,267.719 319.826,269.211 C317.076,269.657 314.915,270.009 313.266,270.227 L311.467,270.471 C309.446,270.749 308.121,270.925 306.992,270.981 C305.863,270.925 304.537,270.749 302.517,270.471 L300.717,270.227 C299.069,270.009 296.908,269.657 294.157,269.211 C284.944,267.719 269.52,265.22 251.519,264.294 C237.686,263.588 226.162,264.682 219.559,265.647 C219.559,265.647 212.513,266.544 206.487,269.093 L207.636,276.752 C207.636,276.752 214.003,275.236 220.222,274.406 C221.378,285.206 223.627,299.084 223.627,299.084 L223.663,299.514 C223.834,300.214 223.993,300.893 224.165,301.634 C225.446,307.091 226.718,310.299 231.836,312.223 C236.862,314.12 248.755,315.878 260.749,316.496 C265.209,316.727 270.271,316.452 275.391,315.707 C282.984,314.598 289.852,312.554 292.476,310.614 C296.294,307.792 298.336,300.691 299.688,295.993 L300.093,294.608 C300.571,293.006 300.986,291.324 301.387,289.692 C301.964,287.35 302.559,284.929 303.068,284.093 C303.16,283.947 303.588,283.442 305.257,283.197 C305.773,283.123 306.354,283.083 306.992,283.075 C307.63,283.083 308.21,283.123 308.727,283.197 C310.395,283.442 310.824,283.947 310.916,284.093 C311.424,284.929 312.02,287.35 312.596,289.692 C312.998,291.324 313.413,293.006 313.891,294.608 L314.295,295.993 C315.647,300.691 317.69,307.792 321.508,310.614 C324.132,312.554 330.999,314.598 338.592,315.707 C343.712,316.452 348.775,316.727 353.234,316.496 C365.229,315.878 377.121,314.12 382.148,312.223 C387.265,310.299 388.537,307.091 389.819,301.634 C389.991,300.893 390.15,300.214 390.32,299.514 L390.356,299.084 C390.356,299.084 392.605,285.206 393.761,274.406 C399.981,275.236 406.348,276.752 406.348,276.752 L407.497,269.093 C401.471,266.544 394.425,265.647 394.425,265.647 L394.425,265.647 Z" id="Fill-28" fill="#545352" sketch:type="MSShapeGroup"></path>
            <path d="M277.838,246.251 C277.838,246.251 261.369,238.397 251.943,252.981 C251.943,252.981 250.97,238.478 264.27,236.858 C277.571,235.235 277.838,246.251 277.838,246.251" id="Fill-29" fill="#A0D1DE" sketch:type="MSShapeGroup"></path>
            <path d="M271.661,224.941 C271.661,224.941 256.394,217.736 249.438,231.583 C249.438,231.583 247.166,219.485 258.061,216.565 C268.957,213.644 271.661,224.941 271.661,224.941" id="Fill-30" fill="#A0D1DE" sketch:type="MSShapeGroup"></path>
            <path d="M336.832,255.143 C336.832,255.143 349.622,249.043 356.943,260.371 C356.943,260.371 357.699,249.108 347.37,247.848 C337.039,246.588 336.832,255.143 336.832,255.143" id="Fill-31" fill="#A0D1DE" sketch:type="MSShapeGroup"></path>
            <path d="M345.927,234.97 C345.927,234.97 358.869,232.875 361.085,244.704 C361.085,244.704 365.381,236.164 357.878,231.643 C350.374,227.12 345.927,234.97 345.927,234.97" id="Fill-32" fill="#A0D1DE" sketch:type="MSShapeGroup"></path>
            <path d="M276.693,361.144 C276.693,361.144 285.729,355.071 291.063,354.235 C291.063,354.235 292.227,365.694 297.527,371.341 C297.527,371.341 308.966,361.03 320.278,360.297 C320.278,360.297 323.198,366.581 327.939,368.911 L327.912,368.984 C329.623,370.052 331.719,371.132 333.749,371.583 C333.749,371.583 340.241,367.654 342.12,360.478 C342.12,360.478 342.745,375.627 333.236,383.884 C333.236,383.884 325.985,380.345 320.761,374.681 C319.192,373.153 317.561,371.376 316.769,369.931 C316.769,369.931 299.993,381.799 299.38,388.567 C299.38,388.567 287.27,376.76 283.141,367.663 C283.141,367.663 275.059,370.214 272.817,371.858 C272.817,371.858 266.321,361.234 265.002,351.647 C265.002,351.647 272.814,359.108 276.693,361.144" id="Fill-33" fill="#B2DCE5" sketch:type="MSShapeGroup"></path>
            <path d="M307.187,331.37 C306.517,331.227 324.203,332.594 341.569,331.977 C341.569,331.977 342.497,328.664 343.829,326.844 C343.829,326.844 343.539,332.42 345.099,333.561 C345.099,333.561 336.409,336.982 327.645,336.957 C327.645,336.957 337.195,335.363 340.398,333.715 C340.398,333.715 322.971,334.685 307.187,331.37" id="Fill-34" fill="#545352" sketch:type="MSShapeGroup"></path>
        </g>
    </g>
</svg>