<svg height="250" width="250" xmlns="http://www.w3.org/2000/svg">
  <path d="m0-.00001526h250v250.00001526h-250z" fill="#ccc"/>
  <path d="m161.401 117.51166c-2.14973-18.309425-17.6266-32.511675-36.40113-32.511675-18.77454 0-34.25114 14.20225-36.40087 32.511675-13.03272 0-23.599 10.63051-23.599 23.74417 0 13.11364 10.5649 23.74415 23.59762 23.74415h72.80477c13.03271 0 23.59761-10.63051 23.59761-23.74415 0-13.11366-10.56627-23.74417-23.599-23.74417zm-58.41308 32.26113c-2.27933 0-4.12723-1.85937-4.12723-4.15286s1.8479-4.15287 4.12723-4.15287c2.27934 0 4.12724 1.85938 4.12724 4.15287 0 2.29377-1.84762 4.15286-4.12724 4.15286zm22.01195 0c-2.27935 0-4.12725-1.85937-4.12725-4.15286s1.8479-4.15287 4.12725-4.15287c2.27933 0 4.12723 1.85938 4.12723 4.15287s-1.84762 4.15286-4.12723 4.15286zm22.01194 0c-2.27935 0-4.12725-1.85937-4.12725-4.15286s1.8479-4.15287 4.12725-4.15287c2.27933 0 4.12723 1.85938 4.12723 4.15287s-1.84763 4.15286-4.12723 4.15286z" fill="#808080"/>
</svg>
