<?xml version="1.0" encoding="UTF-8" standalone="no"?>
<svg
   xmlns:dc="http://purl.org/dc/elements/1.1/"
   xmlns:cc="http://creativecommons.org/ns#"
   xmlns:rdf="http://www.w3.org/1999/02/22-rdf-syntax-ns#"
   xmlns:svg="http://www.w3.org/2000/svg"
   xmlns="http://www.w3.org/2000/svg"
   id="svg2"
   height="250"
   width="250"
   version="1.1">
  <defs
     id="defs4" />
  <metadata
     id="metadata7">
    <rdf:RDF>
      <cc:Work
         rdf:about="">
        <dc:format>image/svg+xml</dc:format>
        <dc:type
           rdf:resource="http://purl.org/dc/dcmitype/StillImage" />
        <dc:title></dc:title>
      </cc:Work>
    </rdf:RDF>
  </metadata>
  <path
     d="M 0,-1.5258789e-5 H 250 V 250 H 0 Z"
     id="rect3126"
     style="fill:#cccccc;fill-opacity:1;stroke:none;stroke-width:0.79056942" />
  <path
     d="m 161.401,117.51166 c -2.14973,-18.309425 -17.6266,-32.511675 -36.40113,-32.511675 -18.77454,0 -34.25114,14.20225 -36.40087,32.511675 -13.03272,0 -23.599,10.63051 -23.599,23.74417 0,13.11364 10.5649,23.74415 23.59762,23.74415 h 72.80477 c 13.03271,0 23.59761,-10.63051 23.59761,-23.74415 0,-13.11366 -10.56627,-23.74417 -23.599,-23.74417 z m -58.41308,32.26113 c -2.27933,0 -4.12723,-1.85937 -4.12723,-4.15286 0,-2.29349 1.8479,-4.15287 4.12723,-4.15287 2.27934,0 4.12724,1.85938 4.12724,4.15287 0,2.29377 -1.84762,4.15286 -4.12724,4.15286 z m 22.01195,0 c -2.27935,0 -4.12725,-1.85937 -4.12725,-4.15286 0,-2.29349 1.8479,-4.15287 4.12725,-4.15287 2.27933,0 4.12723,1.85938 4.12723,4.15287 0,2.29349 -1.84762,4.15286 -4.12723,4.15286 z m 22.01194,0 c -2.27935,0 -4.12725,-1.85937 -4.12725,-4.15286 0,-2.29349 1.8479,-4.15287 4.12725,-4.15287 2.27933,0 4.12723,1.85938 4.12723,4.15287 0,2.29349 -1.84763,4.15286 -4.12723,4.15286 z"
     id="path3149"
     style="fill:#808080;fill-opacity:1" />
</svg>
